# Blender 4.2.3 LTS
# www.blender.org
mtllib HouseForGame.mtl
o Pared1
v 0.287489 1.596142 -1.827191
v 0.287489 -0.000000 -1.827191
v 1.947489 1.596142 -1.827191
v 1.947489 -0.000000 -1.827191
v 1.947489 1.596142 1.852806
v 1.947489 0.000000 1.852806
v 0.577490 1.596142 1.852806
v 0.577490 0.000000 1.852806
v 0.577490 1.596142 1.362806
v 0.577490 0.000000 1.362806
v 0.287489 1.596142 -1.797191
v 0.287489 -0.000000 -1.797191
v 1.917489 1.596142 -1.797191
v 1.917489 -0.000000 -1.797191
v 1.917489 1.596142 1.822806
v 1.917489 0.000000 1.822806
v 0.607490 1.596142 1.822806
v 0.607490 0.000000 1.822806
v 0.607490 1.596142 1.362806
v 0.607490 0.000000 1.362806
vn -0.0000 -0.0000 -1.0000
vn 1.0000 -0.0000 -0.0000
vn -0.0000 -0.0000 1.0000
vn -1.0000 -0.0000 -0.0000
vn -0.0000 1.0000 -0.0000
vn -0.0000 -1.0000 -0.0000
vt 0.000069 0.999931
vt 0.000069 0.769407
vt 0.333357 0.769407
vt 0.333357 0.999931
vt 0.000069 0.258367
vt 0.333357 0.258367
vt 0.000069 0.068115
vt 0.333357 0.068115
vt 0.000069 0.000069
vt 0.333357 0.000069
s 0
f 1/1/1 3/2/1 4/3/1 2/4/1
f 3/2/2 5/5/2 6/6/2 4/3/2
f 5/5/3 7/7/3 8/8/3 6/6/3
f 7/7/4 9/9/4 10/10/4 8/8/4
f 11/1/3 12/4/3 14/3/3 13/2/3
f 13/2/4 14/3/4 16/6/4 15/5/4
f 15/5/1 16/6/1 18/8/1 17/7/1
f 17/7/2 18/8/2 20/10/2 19/9/2
f 1/1/4 2/4/4 12/4/4 11/1/4
f 3/2/5 1/1/5 11/1/5 13/2/5
f 2/4/6 4/3/6 14/3/6 12/4/6
f 5/5/5 3/2/5 13/2/5 15/5/5
f 4/3/6 6/6/6 16/6/6 14/3/6
f 7/7/5 5/5/5 15/5/5 17/7/5
f 6/6/6 8/8/6 18/8/6 16/6/6
f 9/9/5 7/7/5 17/7/5 19/9/5
f 10/10/1 9/9/1 19/9/1 20/10/1
f 8/8/6 10/10/6 20/10/6 18/8/6
o Pared2
v 0.296939 1.596142 -0.147667
v 0.296939 -0.000000 -0.147667
v 0.296939 1.596142 -0.487667
v 0.296939 -0.000000 -0.487667
v 1.936939 1.596142 -0.487667
v 1.936939 -0.000000 -0.487667
v 0.326939 1.596142 -0.147667
v 0.326939 -0.000000 -0.147667
v 0.326939 1.596142 -0.457667
v 0.326939 -0.000000 -0.457667
v 1.936939 1.596142 -0.457667
v 1.936939 -0.000000 -0.457667
vn -1.0000 -0.0000 -0.0000
vn -0.0000 -0.0000 -1.0000
vn 1.0000 -0.0000 -0.0000
vn -0.0000 -0.0000 1.0000
vn -0.0000 1.0000 -0.0000
vn -0.0000 -1.0000 -0.0000
vt 0.824930 0.999892
vt 0.683294 0.999892
vt 0.683294 0.000108
vt 0.824930 0.000108
vt 0.000108 0.999892
vt 0.000108 0.000108
s 0
f 21/11/7 23/12/7 24/13/7 22/14/7
f 23/12/8 25/15/8 26/16/8 24/13/8
f 27/11/9 28/14/9 30/13/9 29/12/9
f 29/12/10 30/13/10 32/16/10 31/15/10
f 21/11/10 22/14/10 28/14/10 27/11/10
f 23/12/11 21/11/11 27/11/11 29/12/11
f 22/14/12 24/13/12 30/13/12 28/14/12
f 25/15/11 23/12/11 29/12/11 31/15/11
f 26/16/9 25/15/9 31/15/9 32/16/9
f 24/13/12 26/16/12 32/16/12 30/13/12
o Pared3
v 0.322607 1.596142 -0.962747
v 0.322607 -0.000000 -0.962747
v 0.322607 1.596142 -1.812747
v 0.322607 -0.000000 -1.812747
v 0.292607 1.596142 -0.962747
v 0.292607 -0.000000 -0.962747
v 0.292607 1.596142 -1.812747
v 0.292607 -0.000000 -1.812747
vn 1.0000 -0.0000 -0.0000
vn -1.0000 -0.0000 -0.0000
vn -0.0000 -0.0000 1.0000
vn -0.0000 1.0000 -0.0000
vn -0.0000 -0.0000 -1.0000
vn -0.0000 -1.0000 -0.0000
vt 0.000073 0.999927
vt 0.000073 0.000073
vt 0.354188 0.000073
vt 0.354188 0.999927
s 0
f 33/17/13 34/18/13 36/19/13 35/20/13
f 37/17/14 39/20/14 40/19/14 38/18/14
f 34/18/15 33/17/15 37/17/15 38/18/15
f 33/17/16 35/20/16 39/20/16 37/17/16
f 35/20/17 36/19/17 40/19/17 39/20/17
f 36/19/18 34/18/18 38/18/18 40/19/18
o Pared4
v -0.192463 1.596142 -0.444301
v -0.192463 -0.000000 -0.444301
v -0.192463 1.596142 -1.834300
v -0.192463 -0.000000 -1.834300
v -1.852462 1.596142 -1.834300
v -1.852462 -0.000000 -1.834300
v -1.852462 1.596142 1.455699
v -1.852462 0.000000 1.455699
v 0.057538 1.596142 1.455699
v 0.057538 0.000000 1.455699
v 0.057538 1.596142 0.815699
v 0.057538 0.000000 0.815699
v -0.222463 1.596142 -0.444301
v -0.222463 -0.000000 -0.444301
v -0.222463 1.596142 -1.804300
v -0.222463 -0.000000 -1.804300
v -1.822462 1.596142 -1.804300
v -1.822462 -0.000000 -1.804300
v -1.822462 1.596142 1.425699
v -1.822462 0.000000 1.425699
v 0.027538 1.596142 1.425699
v 0.027538 0.000000 1.425699
v 0.027538 1.596142 0.815699
v 0.027538 0.000000 0.815699
v -1.303712 1.596142 1.833743
v -0.484618 1.596142 1.833743
v -1.303712 0.000000 1.833743
v -0.484618 0.000000 1.833743
v -1.293712 1.596142 1.803743
v -0.494618 1.596142 1.803743
v -1.293712 0.000000 1.803743
v -0.494618 0.000000 1.803743
vn 1.0000 -0.0000 -0.0000
vn -0.0000 -0.0000 -1.0000
vn -1.0000 -0.0000 -0.0000
vn 0.5720 -0.0000 0.8203
vn -0.0000 -0.0000 1.0000
vn -0.5864 -0.0000 -0.8100
vn -0.0000 1.0000 -0.0000
vn -0.0000 -1.0000 -0.0000
vn 0.5816 -0.0000 -0.8135
vn -0.5673 -0.0000 0.8235
vt 0.269996 0.999936
vt 0.000064 0.999936
vt 0.000064 0.843601
vt 0.269996 0.843601
vt 0.000064 0.656898
vt 0.269996 0.656898
vt 0.000064 0.286866
vt 0.269996 0.286866
vt 0.269996 0.143652
vt 0.000064 0.143652
vt 0.000064 0.072045
vt 0.269996 0.072045
vt 0.000064 0.000063
vt 0.269996 0.000064
vt 0.269996 0.143652
vt 0.000064 0.143652
vt 0.000064 0.215259
vt 0.269996 0.215259
vt 0.269996 0.215259
s 0
f 41/21/19 42/22/19 44/23/19 43/24/19
f 43/24/20 44/23/20 46/25/20 45/26/20
f 45/26/21 46/25/21 48/27/21 47/28/21
f 66/29/22 68/30/22 50/31/22 49/32/22
f 49/32/19 50/31/19 52/33/19 51/34/19
f 53/21/21 55/24/21 56/23/21 54/22/21
f 55/24/23 57/26/23 58/25/23 56/23/23
f 57/26/19 59/28/19 60/27/19 58/25/19
f 70/35/24 61/32/24 62/31/24 72/36/24
f 61/32/21 63/34/21 64/33/21 62/31/21
f 42/22/23 41/21/23 53/21/23 54/22/23
f 41/21/25 43/24/25 55/24/25 53/21/25
f 44/23/26 42/22/26 54/22/26 56/23/26
f 43/24/25 45/26/25 57/26/25 55/24/25
f 46/25/26 44/23/26 56/23/26 58/25/26
f 45/26/25 47/28/25 59/28/25 57/26/25
f 48/27/26 46/25/26 58/25/26 60/27/26
f 66/29/25 49/32/25 61/32/25 70/35/25
f 67/37/26 48/27/26 60/27/26 71/37/26
f 49/32/25 51/34/25 63/34/25 61/32/25
f 51/34/20 52/33/20 64/33/20 63/34/20
f 52/33/26 50/31/26 62/31/26 64/33/26
f 50/31/26 68/30/26 72/36/26 62/31/26
f 68/30/26 67/37/26 71/37/26 72/36/26
f 47/28/25 65/38/25 69/39/25 59/28/25
f 65/38/25 66/29/25 70/35/25 69/39/25
f 59/28/27 69/39/27 71/37/27 60/27/27
f 69/39/20 70/35/20 72/36/20 71/37/20
f 47/28/28 48/27/28 67/37/28 65/38/28
f 65/38/23 67/37/23 68/30/23 66/29/23
o Pared5
v -1.839509 1.596142 0.079125
v -1.839509 0.000000 0.079125
v -0.179510 1.596142 0.079125
v -0.179510 0.000000 0.079125
v -1.839509 1.596142 0.049125
v -1.839509 0.000000 0.049125
v -0.179510 1.596142 0.049125
v -0.179510 0.000000 0.049125
vn -0.0000 -0.0000 1.0000
vn -0.0000 -0.0000 -1.0000
vn -1.0000 -0.0000 -0.0000
vn -0.0000 1.0000 -0.0000
vn 1.0000 -0.0000 -0.0000
vn -0.0000 -1.0000 -0.0000
vt 0.000102 0.999898
vt 0.000102 0.000102
vt 0.691627 0.000102
vt 0.691627 0.999898
s 0
f 73/40/29 74/41/29 76/42/29 75/43/29
f 77/40/30 79/43/30 80/42/30 78/41/30
f 74/41/31 73/40/31 77/40/31 78/41/31
f 73/40/32 75/43/32 79/43/32 77/40/32
f 75/43/33 76/42/33 80/42/33 79/43/33
f 76/42/34 74/41/34 78/41/34 80/42/34
o Pared6
v 0.277606 1.596142 0.347597
v 0.277606 0.000000 0.347597
v 1.937605 1.596142 0.347597
v 1.937605 0.000000 0.347597
v 0.277606 1.596142 0.317597
v 0.277606 0.000000 0.317597
v 1.937605 1.596142 0.317597
v 1.937605 0.000000 0.317597
vn -0.0000 -0.0000 1.0000
vn -0.0000 -0.0000 -1.0000
vn -1.0000 -0.0000 -0.0000
vn -0.0000 1.0000 -0.0000
vn 1.0000 -0.0000 -0.0000
vn -0.0000 -1.0000 -0.0000
vt 0.000102 0.999898
vt 0.000102 0.000102
vt 0.691627 0.000102
vt 0.691627 0.999898
s 0
f 81/44/35 82/45/35 84/46/35 83/47/35
f 85/44/36 87/47/36 88/46/36 86/45/36
f 82/45/37 81/44/37 85/44/37 86/45/37
f 81/44/38 83/47/38 87/47/38 85/44/38
f 83/47/39 84/46/39 88/46/39 87/47/39
f 84/46/40 82/45/40 86/45/40 88/46/40
o Piso
v 1.934153 0.000000 1.833185
v -1.835708 0.000000 -1.813831
v 1.934153 0.000000 -1.813831
v -1.303712 0.000000 1.833743
v -1.835708 0.000000 1.447290
vn -0.0000 1.0000 -0.0000
vt 0.000000 0.105811
vt 0.102363 0.000000
vt 1.000000 0.000000
vt 1.000000 1.000000
vt 0.000000 1.000000
s 0
usemtl 
f 93/48/41 92/49/41 89/50/41 91/51/41 90/52/41
